<svg width="105" height="148" viewBox="0 0 105 148" fill="none" xmlns="http://www.w3.org/2000/svg">
<path fill-rule="evenodd" clip-rule="evenodd" d="M32.733 67.6433C33.1151 74.6792 33.4971 81.7154 33.8791 88.7512C35.9593 86.5864 38.0395 84.4213 40.1195 82.2565V98.2855V102.499C40.1195 102.871 39.9982 104.152 40.1195 104.475C40.2225 104.749 40.9847 104.757 41.1649 104.803C42.341 105.103 43.52 105.37 44.7006 105.608C47.8121 106.235 51.1424 107.133 54.2659 106.413C56.9809 105.786 59.613 104.025 62.0935 101.976C62.9644 101.256 63.8232 100.486 64.6659 99.6631C64.8446 99.4887 65.4933 99.0768 65.5904 98.7216C65.6697 98.4313 65.4835 97.412 65.4587 97.107C65.3539 95.8213 65.249 94.5356 65.1443 93.2501L63.6803 75.2978L66.4458 80.3347C66.6624 80.7294 67.0738 81.8497 67.3736 82.0246C67.5934 82.1529 68.1377 81.7558 68.355 81.6797C69.9208 81.1293 71.4868 80.5787 73.0527 80.0285C73.4175 79.9002 74.2398 79.9051 74.5473 79.5031C74.7129 79.2865 74.7207 78.846 74.7791 78.4285C75.161 75.6993 75.543 72.9703 75.9248 70.2415C75.9937 69.7499 76.3775 68.2001 76.2799 67.705C76.2449 67.5276 76.0755 67.4062 75.9719 67.2906C73.6086 64.6577 71.245 62.0248 68.8817 59.392C67.5869 57.9498 66.2922 56.5074 64.9975 55.0652C64.4553 54.4609 63.7891 53.3723 63.1746 53.0342C62.7931 52.8245 62.2381 52.9816 61.8434 52.961C61.0411 52.9193 60.2391 52.8776 59.4368 52.8358C59.3112 52.8294 58.8714 52.666 58.7656 52.801C58.6776 52.9133 58.7141 53.0698 58.6853 53.3374C58.6147 53.9913 58.6142 54.6961 58.5794 55.3597C58.5516 55.8922 58.6069 56.8687 58.4754 57.3508C58.3913 57.6588 58.4979 57.5361 58.3843 57.685C58.2488 57.8623 57.8166 57.8053 57.6555 57.8393C56.8694 58.0059 56.0833 58.1724 55.2973 58.3388C54.3627 58.5368 53.4177 58.9084 52.4788 58.7372C51.0554 58.478 49.5206 58.4909 48.1228 57.944C47.7596 57.8018 47.6288 57.4284 47.3485 56.9182C46.8017 55.9221 46.2603 54.9145 45.7074 53.9291C45.4364 53.4462 45.5525 53.5281 45.2731 53.7112C44.923 53.9407 44.5679 54.4946 44.2511 54.8466C43.037 56.1953 41.823 57.5443 40.6088 58.893L33.1968 67.1279C33.0422 67.2997 32.8876 67.4715 32.733 67.6433Z" fill="#FF8914"/>
<path fill-rule="evenodd" clip-rule="evenodd" d="M103.628 68.518C102.1 79.0981 99.0267 90.6344 92.8357 94.0068C91.3304 94.8266 89.8662 95.4456 88.3028 95.1333C88.154 95.1036 88.0295 95.1418 87.888 95.1466C87.6344 95.1555 87.8534 95.3215 87.569 95.1615C87.3472 95.0366 87.1398 94.7243 86.9087 94.5862C86.2943 94.2196 85.6394 94.1488 85.0151 93.8525C83.481 93.1245 81.9 92.2259 80.4135 91.2221C79.7135 90.7495 79.0702 90.0913 78.4119 89.4581C77.7426 88.8147 77.0333 88.415 76.3565 87.8248C75.8216 87.3583 74.9053 86.7504 74.5293 85.8753C74.1284 84.942 74.683 82.9554 74.8417 81.9634C75.3809 78.5876 76.023 75.2614 76.4283 71.8185C77.8277 74.7765 79.77 76.6084 81.7807 77.7898C82.8717 78.431 83.994 78.8944 85.1287 79.1844C86.159 79.4477 87.2705 79.7664 88.3032 79.3926C89.0828 79.1103 90.0614 78.4567 90.6182 77.3714C90.8169 76.9839 91.0553 76.2737 90.944 75.7109C90.8026 74.9964 90.3908 75.3327 90.168 74.7996C89.9739 74.335 90.0043 73.2489 89.9424 72.6834C89.833 71.6824 89.6826 70.709 89.4991 69.7455C89.1429 67.8748 88.699 65.9998 88.5927 64.0093C88.5002 62.2823 88.7158 60.6491 89.1882 59.1505C89.4114 58.4421 89.972 56.5148 90.5191 56.5949C91.1198 56.6828 90.3096 61.3009 90.2831 62.243C90.1781 65.9774 90.4529 69.9566 91.5035 73.2298C91.9058 74.4831 92.4875 75.9423 93.3464 76.0977C94.2562 76.2619 94.9901 74.9565 95.423 73.6355C96.4797 70.4127 95.947 65.9903 95.4118 62.6126C94.7555 58.4683 93.0422 55.6119 91.9588 51.89C93.5762 52.1865 94.4424 54.0605 95.2724 56.4382C96.1863 59.0558 96.8977 62.1984 97.2485 65.2441C97.4257 66.7831 97.3034 68.3282 97.3045 69.8822C97.3049 70.3985 97.3047 72.303 97.7663 72.2279C98.2595 72.1478 98.4286 69.9999 98.5011 69.3445C98.6674 67.8415 98.8473 66.3383 98.9916 64.828C99.2472 62.1556 99.3607 59.4186 99.6667 56.7647C99.7185 56.3161 99.8214 55.0715 100.19 55.4075C100.474 55.6663 100.428 57.5914 100.438 58.0388C100.464 59.1414 100.5 60.244 100.505 61.3477C100.512 62.9837 100.333 64.6771 100.421 66.303C100.478 67.3654 100.791 68.5393 101.178 67.1067C101.562 65.6856 101.641 63.9136 101.855 62.3855C102.08 60.7811 102.313 59.1532 102.79 57.7281C102.923 57.3328 103.065 56.7052 103.36 56.8912C103.574 57.0266 103.732 57.9516 103.798 58.2781C104.097 59.7538 104.046 61.3944 104.027 62.9391C104.004 64.832 103.893 66.6828 103.628 68.518ZM73.8334 71.2636C73.7518 71.2154 73.405 71.1555 73.3189 71.1418C73.2181 71.1258 73.3326 70.7869 73.0885 70.8832C73.1357 71.0963 73.2193 71.2383 73.3396 71.3095C72.9727 71.5359 72.7021 70.9769 72.4512 70.905C72.2113 70.8362 72.201 70.905 71.9641 71.3673C71.7075 70.7964 71.7556 71.1524 71.5446 71.1526C71.4678 71.1529 71.4645 71.3644 71.3395 71.3391C71.2304 71.3169 71.2189 71.015 71.1544 70.9795C70.8042 70.7862 70.444 71.7588 70.0469 70.9152C69.9506 71.7929 68.8482 70.6934 68.424 70.8477C67.9793 71.009 68.1711 71.2998 67.8118 70.8029C67.4694 70.3295 67.5649 70.644 67.1666 71.0315C67.1759 71.0224 66.9417 71.3107 66.9635 71.3153C66.6878 71.2565 66.7035 70.7367 66.3544 70.7642C65.9848 70.7935 65.827 71.322 65.4887 70.6717C65.4152 71.1586 65.4 70.9489 65.2267 71.0716C65.1313 71.1129 65.048 71.0672 64.9764 70.9347C64.9548 71.0685 64.9072 71.1506 64.8335 71.1808C64.6447 71.2117 64.2904 71.2596 64.1189 71.0938C63.8617 70.845 64.0684 70.7494 63.89 70.4695C63.8101 71.2412 63.6349 71.0772 63.2652 71.1493C62.9833 71.2043 62.9211 71.0465 62.6518 70.9698C62.3865 70.8943 62.0437 71.0821 61.7849 71.162C61.6781 71.1953 61.5351 71.3311 61.4263 71.2834C61.3284 71.2403 61.2864 71.1016 61.2278 71.0652C61.1568 71.0217 61.1719 70.9083 61.0491 70.8532C60.9644 70.8157 60.8128 70.9604 60.7282 70.9855C60.1249 71.1642 59.5456 71.166 58.9701 70.7332C59.2535 71.6416 58.3077 71.1511 58.139 70.7749C57.9283 71.3772 57.6732 70.952 57.2484 70.9991C56.8393 71.0443 56.224 71.2729 56.0581 70.3437C56.0256 70.5323 55.7934 71.0807 55.7011 71.1644C55.4329 71.4068 55.4009 71.0481 55.1516 70.9021C54.8122 70.7032 54.883 71.0807 54.6725 71.1573C54.3173 71.2871 54.1253 70.8308 53.8113 70.5882C53.7981 70.9653 53.7913 71.1973 53.6125 71.4321C53.4542 70.3807 52.8892 71.5182 52.9862 70.1131C52.7712 70.3683 52.4688 70.5645 52.4076 71.0807C52.7671 70.9003 52.4459 71.3289 52.4308 71.3431C52.3834 71.3883 52.2229 70.9775 52.1856 70.9196C52.1754 71.1134 52.1653 71.3073 52.1552 71.5011C52.012 71.3706 51.8775 71.1367 51.7613 71.0195C51.6566 70.914 51.8066 70.6943 51.6297 70.6792C51.5365 70.671 51.4391 71.0394 51.3413 71.071C51.1916 71.1187 51.2635 70.7272 51.2009 70.7403C51.1055 70.7602 50.95 71.0148 50.8778 71.0099C50.6412 70.9939 50.8014 70.7931 50.6208 70.701C50.2982 70.5363 50.3189 70.9212 50.087 71.0599C49.5563 71.3777 49.6096 69.9155 49.0698 70.8907C48.9406 71.124 48.8575 71.4844 48.6806 71.4642C48.3142 71.4223 48.4428 70.6302 48.5173 70.2422C48.5943 70.3115 47.1786 71.6378 47.1898 71.5859C47.1987 71.2678 47.4214 71.0226 47.2224 70.7401C47.0597 71.3768 46.8885 71.3879 46.5132 71.5064C46.3308 71.5641 46.2949 71.6411 46.0998 71.5029C45.9754 71.415 45.8919 71.0532 45.7683 71.0332C45.785 71.0361 45.558 71.3511 45.5235 71.3792C45.3187 71.5477 45.1891 71.3568 44.9901 71.4261C44.8204 71.4851 44.7536 71.7483 44.5848 71.6762C44.3596 71.5801 44.4918 71.0894 44.1819 71.2263C44.0759 71.2732 44.0123 71.6456 43.8453 71.7224C43.585 71.8427 43.2661 71.6185 42.9911 71.7355C42.7728 71.8284 42.6109 71.8677 42.4199 71.887C42.2658 71.9028 42.3292 71.684 42.0453 71.9423L41.9249 71.3888C41.7828 71.622 41.6407 71.8549 41.4985 72.0881C41.4716 71.8791 41.4545 71.6675 41.4473 71.4531C41.2353 71.8404 40.9685 71.9066 40.6835 71.9414C40.375 71.9791 40.1452 72.1017 39.845 72.2046C39.7501 72.237 39.5056 72.289 39.4276 72.2284C39.439 72.2373 39.2816 72.1179 39.329 72.1405C39.3086 72.0646 39.2896 71.9874 39.2721 71.9088C39.2456 71.6904 39.1594 71.6809 39.0139 71.8799C38.9386 71.8589 38.7925 71.6786 38.7175 71.723C38.5239 71.8375 38.5501 72.1114 38.3573 72.0713C38.2321 72.0451 38.1682 71.7077 38.0379 71.6849C37.8384 71.65 37.6655 72.057 37.4858 72.1458C38.0323 71.8753 36.7771 72.0852 37.1673 72.1039C36.9114 72.0917 36.6458 72.0686 36.4094 72.2777C36.2787 72.1148 36.4374 71.7872 36.3053 71.6524C36.1856 71.5302 36.1763 71.8531 36.1623 71.8602C36.2379 71.8211 36.2002 72.0959 36.1246 72.1447C35.8892 72.297 35.7007 71.9099 35.6885 71.5259C35.4885 72.0752 35.4322 71.8544 35.138 71.8884C34.8478 71.9219 34.5975 72.1993 34.3072 72.1942C33.7329 72.1842 33.3433 71.8202 33.1516 70.8852C33.7635 71.0212 34.3793 70.3035 34.9776 70.4726C35.1743 70.5281 35.2971 70.7975 35.4694 70.7496C35.6816 70.6908 35.8298 70.2684 36.102 70.2229C36.7023 70.1228 37.294 70.2203 37.8984 70.0525C38.6204 69.8518 39.3737 69.7331 40.1026 69.8308C40.6659 69.9064 41.1219 69.5136 41.6931 69.4379C42.4316 69.3398 43.1762 69.3225 43.916 69.2517C44.6761 69.1789 45.494 68.9576 46.252 69.0287C46.4887 69.0506 46.6924 69.093 46.9272 69.0673C47.0265 69.0564 47.1206 68.9332 47.2247 68.9517C47.3605 68.9756 47.4188 69.2291 47.5596 69.2202C47.7988 69.2053 48.0546 68.8458 48.339 68.836C48.8066 68.8198 49.2722 68.8218 49.741 68.7732C50.1538 68.7304 50.596 68.5546 51.0069 68.5641C51.2967 68.5708 51.3683 69.0211 51.5372 69.0677C51.8409 69.1512 53.3773 67.5565 53.5101 68.9878C54.3099 67.9893 55.3825 68.8347 56.2729 68.6471C57.4166 68.4061 58.5813 68.621 59.7328 68.5351C60.9045 68.4478 62.1099 68.5286 63.277 68.7302C63.7605 68.8136 64.2275 68.892 64.7123 68.8413C64.9284 68.8187 65.1782 68.7182 65.3943 68.8089C65.4466 68.8311 65.8474 69.3414 65.7977 69.356C66.0166 68.9976 65.8685 68.945 66.2536 68.9266C66.5505 68.9124 66.8313 69.0293 67.1265 69.0613C67.6564 69.1183 68.1902 68.9845 68.7189 69.014C69.1604 69.0387 69.592 69.1574 70.0358 69.1632C70.5141 69.1696 71.079 69.1942 71.4252 69.8976C71.3886 69.6767 71.3522 69.4559 71.3155 69.2351C71.8495 69.3112 72.3771 69.6588 72.9169 69.4963C72.7804 69.7349 72.6418 69.9297 72.5896 70.2797C72.8806 70.2123 73.0778 69.8416 73.3842 69.8387C73.6416 69.8359 73.6952 70.0713 73.9669 69.7671C74.0004 70.1399 74.0338 70.5128 74.0673 70.8854C74.4437 70.7238 74.1966 70.2121 74.2242 69.7506C74.5301 69.9182 74.7891 69.7258 74.6685 70.5283C74.5756 71.1471 74.152 71.452 73.8334 71.2636ZM73.3046 78.1562C73.1733 78.8287 72.0381 78.4445 71.7697 78.3733C71.4229 78.2818 71.0261 78.1364 70.7068 78.0643C70.6684 77.9711 70.6224 77.8921 70.569 77.8271C70.5287 77.9292 70.478 78.0017 70.4165 78.0441C70.2698 78.1027 70.2693 78.3788 70.0767 78.3178C70.0677 78.7264 70.2233 78.4942 70.3426 78.6425C70.0421 79.0098 70.1795 78.587 70.011 78.5936C69.9692 78.4856 69.9111 78.4432 69.8365 78.4665C69.7414 78.5113 69.654 78.5854 69.5739 78.6889C69.4987 78.8336 69.4344 78.8409 69.3809 78.7115C69.3295 78.6174 69.267 78.5592 69.193 78.5373C68.8971 78.6249 68.8143 78.8644 68.481 78.8253C68.0049 78.7694 67.4898 78.9982 67.0211 78.8777C66.7306 78.8032 66.2452 77.9707 66.1133 78.7821C65.9125 78.1806 65.5926 77.7714 65.4004 77.1568C66.2961 77.0623 67.1914 76.9497 68.0879 76.8907C68.8727 76.8392 69.7313 77.0003 70.4647 76.9329C71.1519 76.8696 71.8794 76.7311 72.5809 76.6168C73.3245 76.4956 73.5706 76.7933 73.3046 78.1562ZM49.9382 78.2554C50.2634 78.4196 50.5731 78.0474 50.8885 78.1651C50.9928 78.2039 51.2087 78.5501 51.2561 78.557C51.343 78.5697 51.5983 78.2297 51.7078 78.1842C52.4005 77.8965 53.2398 77.9272 53.9324 78.1038C54.2994 78.1973 54.3558 77.891 54.6762 77.7423C55.0091 77.5874 55.4824 77.7066 55.833 77.6639C56.6579 77.5632 57.4824 77.6349 58.3017 77.5248C59.1428 77.4118 59.9797 77.3508 60.8212 77.2718C61.3944 77.218 62.7719 76.6217 63.2469 77.3978C63.6388 78.0377 63.134 79.1487 62.7422 79.4024C62.4491 79.5915 62.3088 79.1927 62.0912 79.2308C61.8434 79.2741 61.9298 79.8079 61.7087 79.3127C61.5717 79.8052 60.7104 79.5953 60.4637 79.6279C59.9258 79.6987 59.4709 79.8955 59.1047 78.9805C59.1295 79.2441 59.1544 79.5083 59.1792 79.7721C58.6938 79.299 58.1727 79.4503 57.7513 79.6155C57.5427 79.6971 56.9021 80.2615 56.676 80.0181C56.5205 79.8507 56.7947 79.5644 56.5322 79.4215C56.3947 79.3465 56.1573 79.763 55.9892 79.7422C55.5242 79.6838 55.6561 79.1134 55.1993 79.8394C55.0445 79.5953 54.993 79.1802 55.0135 78.8245C54.6816 79.3407 54.7094 80.2012 54.116 80.0436C53.8949 79.985 53.8543 79.5737 53.7391 79.4978C53.4935 79.336 53.4656 79.6268 53.2529 79.8569C53.1726 79.9437 53.0747 80.0833 52.9801 80.1008C52.7859 80.1361 52.7551 79.9734 52.7285 79.9788C52.5993 80.0047 52.4364 80.1246 52.2831 80.0389C52.1455 79.9621 52.1052 79.5191 51.8628 79.6228C51.6308 79.722 51.6288 80.0094 51.6709 80.4397C51.442 80.3965 51.3037 80.1641 51.1325 79.9122C50.9597 80.6475 50.5959 80.0385 50.3946 80.6588C50.1325 80.088 49.9643 80.2451 49.6391 79.6876C49.6551 79.9202 49.6711 80.1528 49.6869 80.3856C49.4332 80.2964 49.3202 79.9699 49.1036 80.4018C48.8935 79.6878 48.2564 80.7052 47.929 80.0156C47.7831 80.8889 46.8179 80.6801 46.4103 80.6952C46.049 80.7087 45.7816 80.6548 45.4286 80.8077C45.1167 80.9429 44.6843 81.0831 44.391 81.0212C44.1993 80.9808 43.9898 80.9167 43.7509 80.9642C43.4067 81.0321 43.1093 81.3572 42.7526 81.2034C42.2156 80.972 41.8865 79.6854 42.4845 79.1203C42.8939 78.7337 43.6313 78.8768 44.0818 78.8054C44.8283 78.6871 45.665 78.4392 46.4125 78.5519C46.9956 78.6398 47.5271 78.3861 48.122 78.2789C48.5699 78.1984 49.3041 78.053 49.5962 78.8626C49.7083 78.6263 49.6967 78.1336 49.9382 78.2554ZM41.7656 89.3382C41.6854 88.61 45.0985 88.209 45.4373 88.1615C46.1486 88.0614 46.8617 87.9902 47.5747 87.9571C48.1607 87.93 48.7077 88.134 49.2938 87.97C49.8413 87.8168 50.502 87.5028 50.9785 88.2097C51.0486 87.2429 53.1031 87.7138 53.494 87.7165C55.1955 87.7276 56.8236 87.7349 58.4694 87.5427C59.41 87.4329 60.4088 87.2851 61.3495 87.3709C61.7738 87.4098 62.1155 87.616 62.5374 87.4369C62.8127 87.3204 63.1092 87.0773 63.3725 87.4207C63.6805 87.8228 63.8122 89.1878 63.5999 89.7575C63.4454 90.1725 63.3085 90.1266 63.0616 90.0547C62.6821 89.9446 62.4 89.7843 62.0129 90.0658C62.0756 90.02 61.7536 90.1512 61.7803 90.1474C61.3419 90.2071 60.7405 90.7658 60.3627 90.1219C60.514 90.1703 60.7341 89.6774 60.5433 89.6367C60.3999 89.6066 60.309 89.8867 60.1972 89.9805C59.8146 90.3015 59.6188 90.2011 59.3904 89.5278C58.9297 90.2551 58.8801 90.0538 58.6778 89.1582C58.5221 89.3768 58.4886 89.8944 58.3661 90.064C58.3478 90.0893 58.4233 90.4035 58.3348 90.3907C58.2527 90.3785 58.2258 90.133 58.1626 90.1137C58.1224 90.1013 58.1013 89.886 58.0627 89.8729C58.0209 89.8587 57.9779 89.9961 57.9305 89.9921C57.8039 89.9812 57.4419 90.4726 57.5717 89.783C57.3798 90.228 57.2973 89.9444 57.2281 89.5393C57.0066 89.8465 56.7853 90.1534 56.5637 90.4604C56.4608 89.9381 56.2835 90.0804 56.0605 90.2628C56.1277 89.9002 56.0856 89.5571 55.9171 89.8092C55.8194 89.9552 55.7539 90.4186 55.654 90.6155C55.2496 89.8687 55.1027 90.0735 54.544 90.1707C54.3308 90.2076 54.0658 90.2795 53.8754 90.0444C53.7078 89.838 53.6131 89.0803 53.3267 89.6925C53.3906 89.5564 53.2905 90.6022 53.2729 90.7682C53.1466 90.6131 53.0393 90.422 52.9509 90.1956C52.7862 90.7906 52.3535 90.2566 51.999 90.3782C51.4408 90.5698 50.8651 90.8923 50.3721 90.1346C50.3373 90.3791 49.9334 90.6907 49.9328 90.7003C49.9568 90.2671 50.1066 90.4193 49.8007 90.3372C49.7443 90.3221 49.6804 90.5067 49.6273 90.5269C49.4449 90.5957 49.2318 90.5305 49.0479 90.521C48.2831 90.4808 47.5831 90.7899 46.8279 90.902C46.5734 90.9395 46.2713 91.0137 46.0324 90.8388C45.7862 90.6581 45.7929 90.4533 45.5438 90.5696C45.6226 90.5329 45.3882 90.9821 45.4008 90.9653C45.3674 91.0097 45.2277 90.7904 45.178 90.8068C45.1635 90.9027 45.149 90.9984 45.1346 91.0942C45.0745 91.0807 45.0145 91.0671 44.9545 91.0538C44.7902 91.094 44.6421 90.7908 44.4878 90.7806C44.5162 90.7824 44.0714 91.0845 44.0917 91.1029C43.7812 90.8203 43.8704 90.9022 43.4765 91.0742C43.1042 91.2367 42.7335 91.1988 42.3515 91.3002C41.2404 91.5945 41.9024 90.5789 41.7656 89.3382ZM40.7844 99.47C40.5754 98.9296 41.1313 98.7427 41.309 98.695C41.6009 98.6165 41.9883 98.7727 42.1829 98.6881C42.4792 98.5596 42.7653 98.2527 43.0988 98.1695C43.5198 98.0645 43.9441 98.0474 44.3669 97.9817C44.5077 97.9595 44.682 97.8712 44.819 97.8861C45.0231 97.9085 45.1078 98.1053 45.2726 98.1067C45.5532 98.1093 45.8993 97.7862 46.1869 97.7269C46.5551 97.6508 46.9271 97.6151 47.2971 97.5816C48.0768 97.511 48.8484 97.5403 49.6276 97.5387C49.9831 97.5378 50.9295 96.8651 51.1067 97.6193C51.3531 97.0478 51.9851 97.1257 52.3374 97.109C52.958 97.08 53.5721 96.9708 54.1922 96.9182C54.7231 96.8731 55.3163 97.0804 55.8377 96.9353C56.125 96.8554 56.2203 96.6874 56.5461 96.7633C56.7882 96.8192 57.1573 96.5859 57.3651 96.6891C57.3543 96.6838 57.6244 96.989 57.5401 96.9987C57.6329 96.9879 57.6275 97.1061 57.7298 97.0533C57.8641 96.9843 57.8024 96.676 58.081 96.5666C58.5154 96.3957 59.0947 96.5935 59.5461 96.5495C59.9839 96.5071 60.4211 96.4887 60.8594 96.4925C61.0611 96.494 61.3107 96.4062 61.507 96.4781C61.6031 96.5131 61.8075 96.7422 61.8891 96.7191C62.12 96.6532 62.2377 96.3606 62.5499 96.3789C62.9039 96.3993 63.2225 96.3904 63.5745 96.3411C63.9152 96.2936 63.97 96.2049 64.1389 96.722C64.3063 97.2351 64.3524 97.9031 64.0443 98.2518C64.2445 98.2278 64.4907 98.7168 64.2548 98.9873C64.1091 99.1547 63.8168 98.7771 63.6423 98.8042C63.4273 98.838 63.2585 99.0452 63.0246 99.0581C62.7786 99.0719 62.5288 99.1848 62.2862 99.1935C62.0335 99.2024 61.8425 98.9964 61.6027 99.0841C61.3919 99.1615 61.3696 99.4767 61.1157 99.1999C60.9895 99.0621 60.9682 98.5521 60.796 98.5474C60.5653 98.541 60.6573 99.0845 60.5246 99.3364C60.489 98.559 60.1599 99.8453 60.0291 98.9016C59.9085 99.215 59.4621 99.6534 59.2457 99.4017C59.0486 99.1722 59.1141 98.6531 59.0319 98.2789C58.8952 98.9511 58.5284 99.6487 58.5616 98.4247C58.3834 98.8249 57.9019 98.7616 58.0226 99.4616C57.8774 99.4565 57.8431 99.0785 57.7209 99.0499C57.6154 99.0253 57.5317 99.1731 57.5155 99.1709C57.5733 99.1797 57.3428 99.3196 57.3392 99.3211C57.4953 99.2632 56.8891 99.1646 56.9923 99.1662C56.8516 99.1642 56.6794 99.3742 56.5149 99.3735C56.3651 99.3728 56.2161 99.2652 56.0681 99.2346C55.6847 99.1547 55.7645 99.3083 55.5237 99.528C55.4345 99.6092 55.4121 99.747 55.2854 99.7299C55.192 99.7171 55.157 99.4947 55.1465 99.4929C55.015 99.4687 55.1121 99.3881 54.9081 99.4254C54.8846 99.4989 54.8614 99.5721 54.8379 99.6456C54.7642 99.8176 54.6686 99.8604 54.5513 99.7748C54.2493 99.8928 53.2478 100.405 53.3459 99.4567C53.1925 99.5934 53.039 99.7304 52.8856 99.8673C52.8197 99.1027 51.986 100.116 51.7998 100.168C51.5608 100.233 51.5388 100.066 51.3129 99.9767C51.2722 99.9607 51.1905 100.206 51.0951 100.17C50.8473 100.08 50.8031 100.035 50.7606 99.5437C50.5839 100.146 50.4371 99.8769 50.1165 99.9758C50.0456 99.9978 50.0003 100.252 49.8985 100.208C49.8251 100.177 49.8232 99.9323 49.7725 99.9008C49.727 99.8722 49.7338 99.6791 49.6668 99.6518C49.5899 99.6201 49.3277 100.012 49.2525 100.073C49.0828 100.209 48.8042 100.435 48.6386 100.367C48.4338 100.284 48.5249 100.007 48.2356 100.038C47.7791 100.087 47.5887 100.795 47.3047 99.6789C47.1765 100.126 47.1928 100.247 46.987 100.395C46.8349 100.504 46.4496 100.39 46.2493 100.377C45.394 100.319 44.553 100.851 43.7048 100.712C43.3319 100.65 43.0175 100.514 42.6413 100.625C42.2459 100.743 41.8592 100.915 41.4581 100.984C41.2542 101.019 40.8281 101.126 40.7279 100.65C40.6399 100.232 40.9684 99.9463 40.7844 99.47ZM42.4619 116.634C41.3524 117.988 40.4336 119.837 39.4148 121.402C38.3935 122.972 37.583 124.716 36.6645 126.454C35.8153 128.06 35.0351 129.58 34.0084 130.794C33.3588 131.563 32.7792 132.508 32.1119 133.233C31.612 133.775 30.8547 134.489 31.0986 132.829C31.3485 131.129 31.81 129.41 32.2107 127.821C32.7804 125.564 33.3544 123.327 33.9707 121.112C34.2024 120.28 34.332 119.452 34.6993 118.789C35.0991 118.067 35.3789 117.125 35.8166 116.443C37.658 113.576 40.4328 115.791 42.4619 116.634ZM45.9422 117.607C45.4389 118.088 44.8756 118.207 44.3423 118.525C43.8878 118.796 43.4652 119.278 42.9764 119.314C43.4214 118.705 43.8036 117.877 44.3053 117.414C44.8695 116.894 45.3817 117.273 45.9422 117.607ZM68.0317 121.616C66.1805 120.477 64.457 118.799 62.654 117.448C62.3427 117.214 59.9086 115.752 59.958 115.056C61.6637 114.486 63.4205 113.508 65.1304 114.575C66.6858 115.545 67.951 117.872 69.1552 119.819C69.4694 120.328 71.4124 122.642 71.2385 123.379C71.118 123.89 70.1819 123.75 69.9608 123.646C69.6751 123.51 69.5107 123.194 69.2867 122.847C68.9122 122.266 68.4978 121.903 68.0317 121.616ZM64.6143 102.583C64.8955 102.111 65.0638 101.395 65.3324 100.96C65.6775 100.4 66.2343 100.673 66.6115 100.963C67.7434 101.836 68.7109 103.303 69.8359 104.213C71.0826 105.222 72.1618 106.57 73.2863 107.959C74.3142 109.229 75.4255 110.28 76.4747 111.492C77.5438 112.727 78.7406 113.53 79.8243 114.722C80.9272 115.934 82.0259 117.152 83.0858 118.488C84.9758 120.87 86.9436 123.317 88.3419 126.705C89.0605 128.446 89.7333 130.421 90.2606 132.377C90.74 134.154 91.26 136.621 90.6388 138.47C90.0422 140.246 89.0253 141.645 88.1646 142.97C87.8386 143.471 87.5286 144.081 87.1061 144.298C86.5922 144.563 85.9925 144.49 85.4641 144.568C82.6382 144.986 80.0056 144.591 77.2209 143.67C74.5357 142.781 71.8393 142.283 69.1335 141.665C67.6071 141.317 66.081 140.911 64.5752 140.331C63.9315 140.083 63.2766 139.796 62.6468 139.458C62.0968 139.163 61.6343 138.513 61.0687 138.256C58.6685 137.163 55.9223 136.745 53.5461 134.906C55.6489 133.312 57.8835 132.349 60.0386 131.025C62.3069 129.631 64.5223 128.461 66.9131 128.065C68.1434 127.861 69.2444 127.288 70.4279 126.689C71.5556 126.117 72.733 125.942 73.8915 125.686C74.4066 125.572 75.8767 125.742 76.0475 124.514C76.3017 122.685 74.8571 122.474 74.2414 122.638C73.3679 122.871 72.6475 123.268 71.979 121.961C71.2963 120.626 70.633 119.26 69.938 117.942C68.6493 115.498 67.321 112.672 65.4994 111.575C63.2771 110.238 60.7001 111.507 58.4827 112.268C56.1406 113.071 53.8023 113.84 51.5041 115.008C50.5524 115.492 49.325 116.557 48.3373 116.386C47.3638 116.217 46.2612 115.926 45.3205 115.414C44.8949 115.183 44.545 114.754 44.1641 114.353C43.6689 113.833 43.1262 113.499 42.6006 113.094C41.5378 112.276 40.5017 111.523 39.3551 111.201C38.3894 110.93 37.364 110.769 36.4282 111.387C35.5101 111.993 34.6967 113.226 34.0561 114.543C33.3603 115.975 32.7853 117.579 32.215 119.178C31.9413 119.946 31.6071 120.616 31.3235 121.366C31.0855 121.996 30.9465 122.696 30.6946 123.309C30.1309 124.679 29.748 126.432 29.4065 128.026C29.0268 129.796 28.6052 131.902 28.6958 133.828C28.73 134.556 28.7658 135.52 28.9202 136.195C29.1166 137.054 29.3966 137.032 29.8002 137.356C30.4937 137.912 30.6882 139.45 31.5844 139.15C32.425 138.869 33.154 137.606 33.7672 136.598C34.5666 135.286 35.3316 133.903 36.0965 132.524C36.8814 131.109 37.6548 129.54 38.2792 127.875C38.525 127.22 38.7166 126.48 39.0071 125.883C39.377 125.123 39.7923 125.032 40.2947 124.729C44.6873 122.082 49.1011 119.529 53.6309 117.781C54.7161 117.362 55.8101 116.822 56.8762 116.265C58.0069 115.673 58.5924 116.298 59.5256 117.423C61.4751 119.774 63.7794 121.43 65.9503 122.964C66.6339 123.447 67.7221 123.478 68.2564 124.431C65.0891 125.311 62.0707 127.006 59.0158 128.693C57.5096 129.525 55.9861 130.246 54.4742 131.041C52.9616 131.837 51.5068 132.868 50.0151 133.765C48.5305 134.658 46.9615 135.022 45.4626 135.846C43.9325 136.687 42.4087 137.265 40.838 137.776C39.2521 138.292 37.6773 138.888 36.0859 139.35C35.3573 139.561 34.6288 139.781 33.9083 140.072C33.2032 140.357 32.5221 141.039 31.8135 141.197C28.6491 141.903 25.5468 143.476 22.3947 144.366C20.0412 145.03 15.9467 145.956 14.4205 141.649C12.8858 137.318 14.7687 132.266 16.4486 129.169C17.4927 127.245 18.6658 125.551 19.8966 124.044C21.214 122.431 22.4815 120.69 23.799 119.08C26.7808 115.435 30.014 112.463 33.2175 109.535C34.7551 108.129 36.2407 106.622 37.7364 105.079C38.4788 104.314 38.8896 105.549 39.4765 106.389C39.9381 107.049 40.7856 108.677 41.4314 107.925C41.4562 108.196 41.4811 108.467 41.506 108.738C41.6951 108.581 41.8844 108.424 42.0735 108.266C42.2005 108.874 42.1857 109.251 42.5406 109.571C42.7586 109.767 43.2238 110.003 43.4316 109.657C43.4739 109.897 43.5163 110.137 43.5588 110.377C43.7404 110.352 43.7755 109.404 43.8098 109.182C44.1211 110.011 44.5517 110.704 45.0989 110.939C45.1016 110.885 45.01 110.203 45.0139 110.199C45.187 110.006 45.4054 110.834 45.4972 111.011C45.8015 111.598 45.9831 111.507 46.3193 111.033C46.3437 111.082 46.4575 111.623 46.4741 111.613C46.5468 111.571 46.6849 111.091 46.7001 111.048C46.6791 111.679 47.3473 111.806 47.5832 111.671C47.5303 111.485 47.4773 111.301 47.4245 111.116C48.2464 110.916 48.5691 112.508 49.358 112.427C49.9412 112.367 49.4734 112.135 49.8036 111.679C50.0918 111.281 50.1432 112.152 50.1715 112.124C50.2265 112.019 50.2691 111.898 50.2994 111.762C50.4061 112.508 51.2557 113.177 51.1679 111.951C51.5022 112.194 51.7394 112.599 52.1094 112.685C52.559 112.788 53.0391 112.614 53.4877 112.547C54.4541 112.4 55.3651 112.04 56.2363 111.233C56.7528 110.754 57.3026 110.32 57.7881 109.742C58.1944 109.259 58.9653 107.791 59.5063 108.423C59.3677 107.677 60.0199 108.368 60.0407 107.408C60.1455 107.552 60.2502 107.696 60.355 107.84C60.4178 107.589 60.4003 107.193 60.4845 106.974C60.6 106.673 60.6564 106.85 60.7549 106.681C60.8651 106.492 60.9614 105.985 61.0935 105.841C61.2297 105.692 61.3899 105.869 61.5364 105.739C61.7596 105.542 62.7193 103.611 62.5569 105.265C62.9696 105.01 62.6514 104.776 62.7029 104.274C62.8064 103.269 63.0585 103.993 63.3095 104.08C63.7205 104.224 63.7123 103.604 63.9414 103.154C64.1507 102.742 64.5442 102.558 64.4087 101.843C64.5634 101.996 64.5963 102.294 64.6143 102.583ZM39.8374 81.1151C39.5136 81.7729 39.2711 81.4917 38.9112 81.3952C38.8726 81.1597 38.8068 81.1273 38.7138 81.2973C38.6071 81.4092 38.4925 81.4829 38.3696 81.5179C38.0744 81.6507 37.7677 81.5943 37.479 81.7954C37.4872 81.6189 37.5888 81.3053 37.5237 81.1262C37.22 81.5093 37.0318 81.753 36.6588 81.7603C36.3567 81.7661 35.8263 81.345 35.5753 81.8484C35.5676 81.6524 35.5598 81.4567 35.5522 81.2607C35.4293 81.3723 35.3224 81.5217 35.2315 81.709C35.2142 81.4187 35.2047 81.1992 35.0994 80.9646C34.8998 81.7135 34.6811 81.7312 34.2933 81.4451C34.3477 81.4851 33.9051 81.0119 33.922 81.1431C33.7821 80.0678 35.9908 80.1565 36.2227 80.1142C36.8018 80.0074 37.3808 79.9455 37.9607 79.848C38.5107 79.7559 38.9213 79.5995 39.3019 80.4364C39.1323 79.2275 40.7372 79.2874 39.8374 81.1151ZM14.5134 62.3667C14.5742 64.1944 14.7972 66.137 14.4076 67.8961C14.0944 69.3101 13.4696 70.907 12.7964 71.8298C11.4181 73.7192 10.2499 71.4072 10.058 68.8664C9.85811 66.2162 10.2544 62.9781 11.5056 61.3442C12.2532 60.3679 12.9771 60.4356 13.8378 60.7565C14.0399 60.832 14.3681 60.8029 14.4837 61.1693C14.5108 61.255 14.4865 62.3649 14.5134 62.3667ZM32.8191 86.718C32.581 86.9373 32.3319 87.0656 32.122 87.3636C32.0491 87.4673 32.0243 87.7034 31.9469 87.7904C31.8061 87.9493 31.6048 87.8439 31.4581 87.9751C31.2152 88.1915 31.041 88.5013 30.7524 88.7008C30.3237 88.9971 29.9478 89.4035 29.5426 89.7888C28.8675 90.4308 28.1429 90.9819 27.4371 91.5046C27.0809 91.7685 26.0956 92.2827 26.1297 93.234C26.0499 93.2732 25.9685 92.9554 25.8021 92.9807C25.5737 93.0153 25.2719 93.4972 25.0347 93.6157C24.5911 93.8372 24.2477 93.8567 24.2477 94.8883C24.1065 94.7134 24.0706 94.2851 23.8828 94.2285C23.6713 94.1646 23.5823 94.5807 23.4132 94.7101C23.214 94.8626 22.9662 94.7163 22.769 94.8785C22.6827 95.045 22.5868 95.1904 22.4813 95.3142C22.374 95.3366 22.2672 95.3308 22.1609 95.296C21.7421 95.458 21.3567 95.7454 20.9369 95.8946C20.5278 96.0404 20.2476 96.0932 20.4196 96.9757C19.9819 97.1319 19.8751 96.2848 19.3813 96.5948C18.7761 96.9741 18.2104 97.248 17.5786 97.4795C17.2564 97.5975 16.9197 97.861 16.5951 97.9229C16.3636 97.9671 16.1475 97.8159 15.9194 97.863C15.6447 97.9191 15.4238 98.1513 15.1394 98.1599C14.8696 98.1686 14.5865 98.0803 14.3216 97.9935C14.3591 98.1881 14.4059 98.3748 14.4621 98.5534C14.279 98.4835 14.1944 98.0818 14.0392 98.0223C13.8762 97.9602 13.7302 98.2667 13.5945 98.1988C13.5367 98.1697 13.5752 97.8448 13.4719 97.7826C13.3776 97.7265 13.3379 97.7928 13.2444 97.7662C13.2133 97.7573 12.8226 97.7187 12.7603 97.7789C12.6515 97.8841 12.7616 98.0811 12.7399 98.1104C12.3725 98.6065 12.368 98.3388 12.2042 97.8206C11.9636 97.06 11.6735 97.54 11.2363 97.4069C10.749 97.2586 10.365 97.6508 9.88549 97.5949C9.36821 97.5347 8.76028 96.8287 8.30287 96.4164C7.31528 95.5262 6.35216 94.6837 5.52276 93.3352C3.90133 90.6992 2.58228 87.4575 1.80455 83.7464C0.968909 79.7595 0.810562 75.6014 0.877634 71.3717C0.917984 68.8278 1.02962 66.2855 1.24945 63.7716C1.40079 62.0422 1.43249 58.969 2.50148 58.1815C2.68522 62.2306 2.10534 66.3567 2.47106 70.3796C2.58118 71.5914 2.84974 73.2058 3.35801 74.1033C4.1105 75.4316 4.28658 73.5114 4.3546 72.4508C4.48127 70.4806 4.71661 68.5215 4.88331 66.5607C5.04978 64.601 5.16745 62.619 5.39889 60.6797C5.48334 59.9726 6.16403 54.7945 6.66367 55.0397C6.56255 58.8067 6.29412 62.5089 6.28353 66.2897C6.27939 67.8062 6.20492 69.408 6.3249 70.9145C6.38672 71.6897 6.77379 73.9646 7.43952 73.7749C8.05561 73.5993 7.37832 71.9969 7.32076 71.379C7.16841 69.7433 7.36262 67.7083 7.50462 66.0848C7.77355 63.0123 8.37332 59.8656 9.35361 57.298C10.2317 54.9989 11.5836 52.8101 13.2123 53.2156C13.9081 53.389 14.4511 53.7041 14.8007 54.8631C15.0751 55.7726 16.1557 56.8062 15.5294 57.945C14.9593 58.9816 14.0372 58.1518 13.4035 57.9046C12.6275 57.6021 11.7959 57.966 11.147 58.7954C10.0336 60.2178 9.39912 62.7613 9.19201 65.1467C8.91287 68.3628 9.65903 76.7815 12.4073 74.8948C14.233 73.6413 15.6081 69.1323 15.4548 65.6802C15.3934 64.2984 15.0972 61.6751 16.1454 61.302C17.4883 60.8242 17.678 63.5241 17.5419 65.2788C17.3443 67.8308 16.6047 70.2041 15.7587 72.2219C15.0213 73.9806 14.1636 75.0803 13.2763 76.5329C13.0136 76.9628 12.3435 77.9296 12.4561 78.7295C12.5794 79.6059 13.6325 79.8551 14.0541 79.9992C16.1401 80.7114 18.4925 80.0562 20.575 79.5591C24.8551 78.5366 29.0789 76.0189 32.5885 71.3899C32.7303 74.254 32.909 77.1086 32.9748 79.9832C33.0067 81.3785 33.0149 82.7941 33.1024 84.1819C33.1563 85.0355 33.3508 86.228 32.8191 86.718ZM20.9512 96.6982C20.7831 96.8582 20.9648 95.8888 20.9181 96.2095C21.1691 96.3737 21.1802 96.5367 20.9512 96.6982ZM38.7061 62.036C38.9729 61.4998 39.7016 60.2243 39.933 61.4347C40.019 60.9187 40.0302 60.1544 40.3624 60.8513C40.4946 59.9952 41.9538 60.0754 42.3152 60.0376C43.4724 59.9169 44.6342 59.8523 45.7873 59.6426C48.1568 59.2118 50.5676 59.4342 52.9458 59.42C53.4608 59.4169 53.9744 59.366 54.4856 59.5023C54.9789 59.6337 55.4974 60.0026 56.0002 59.8678C56.4473 59.748 56.7404 59.5232 57.2005 59.6193C57.7511 59.7345 58.2857 59.8164 58.8411 59.8126C61.2982 59.7962 63.754 59.9777 66.2115 59.9848C66.6905 59.9861 67.2643 59.8155 67.7137 60.1866C67.8802 60.3242 68.0621 60.7818 68.1892 60.832C68.3349 60.8894 68.2484 60.4749 68.4434 60.6622C68.7047 60.9127 68.5025 61.6835 68.3298 61.8056C68.4332 61.7326 68.1433 61.6605 68.1722 61.6576C68.0347 61.6711 67.9173 61.8635 67.7696 61.8516C67.5444 61.8336 67.3561 61.5832 67.1748 61.3628C67.1716 61.4529 67.2713 62.0529 67.1575 62.083C67.0597 62.1092 66.9679 61.5177 66.9581 61.3801C66.4083 62.2646 65.8258 61.7716 65.1436 61.8835C64.6597 61.9632 63.6507 62.5518 63.3131 61.6305C63.2991 61.8265 63.256 61.998 63.1839 62.1452C63.0874 62.4131 63.0041 62.3904 62.9336 62.0762C62.9098 62.0782 62.6747 62.1714 62.67 62.1707C62.5047 62.1467 62.2901 62.0384 62.1218 62.0122C61.8614 61.9716 61.9094 62.3174 61.7019 62.323C61.5886 62.3258 61.2998 62.0275 61.1021 62.0089C60.76 61.9763 60.4105 62.2411 60.0729 62.1609C59.8405 62.1059 59.6305 61.7608 59.4025 61.7475C59.1183 61.7301 59.0262 62.1254 58.8011 61.5704C58.755 61.5475 58.7264 61.874 58.7081 61.8797C58.7125 61.8782 58.4939 61.9372 58.4681 61.9556C58.4232 61.9869 58.2483 62.133 58.1951 62.1345C58.0803 62.1385 58.0178 61.9885 57.896 61.9849C57.6945 61.9787 57.0512 62.3023 57.0692 61.6223C56.35 62.1083 55.7364 61.919 54.9982 62.0338C54.6596 62.0868 54.4469 62.004 54.1247 61.8906C53.7212 61.7486 53.4532 61.927 53.0508 61.9632C52.6641 61.9978 52.5422 61.6993 52.2157 61.4299C52.087 61.3236 52.0019 61.1835 51.844 61.2425C51.7539 61.2763 51.818 61.5528 51.7914 61.5717C51.6527 61.6693 51.5558 61.5659 51.3656 61.5897C51.0144 61.6332 50.8746 62.1685 50.5137 61.666C50.6336 61.6396 50.7536 61.6125 50.8737 61.5861C50.5284 61.3191 50.0729 61.1831 50.1565 62.1549C49.8621 62.0795 50.1169 61.7139 49.9722 61.583C49.8274 61.4525 49.6655 61.6711 49.4832 61.7792C49.0018 62.0639 48.6005 61.9226 48.0987 61.8715C47.5283 61.8134 46.1943 62.6621 45.7859 61.5604C45.7737 61.7925 45.637 62.4392 45.4551 62.4088C45.3958 62.3989 45.5611 61.7122 45.5798 61.6396C45.4861 62.0034 45.0588 62.0724 44.848 62.261C44.8717 62.0655 44.8952 61.8702 44.9188 61.6749C44.7233 62.0546 44.6282 61.8229 44.3981 61.9499C44.2975 62.0054 44.1519 62.3838 44.0658 62.4066C43.9657 62.1947 43.8396 62.1035 43.688 62.133C43.587 62.087 43.4861 62.0779 43.3852 62.1061C42.9814 62.1596 42.6132 62.5689 42.2114 62.2901C41.8636 62.0484 41.7291 61.427 41.5218 62.4157C41.4671 62.2399 41.4126 62.0642 41.3581 61.8884C41.2908 62.0793 41.2235 62.2699 41.1561 62.4606C40.893 62.1463 40.8769 61.9643 40.5741 62.0797C40.503 62.1314 40.4302 62.1241 40.3556 62.058C40.3377 62.1549 40.3199 62.2515 40.302 62.3483C40.295 62.5915 40.2553 62.6721 40.1833 62.5893C40.1227 62.5495 40.068 62.4894 40.0192 62.4084C39.8189 62.4364 39.563 62.5325 39.348 62.4794C39.265 62.4592 38.7448 61.9583 38.7061 62.036ZM44.8363 55.4925C44.8599 55.5586 44.8835 55.6246 44.9071 55.6907C44.5819 56.0039 44.5053 55.8241 44.4718 55.1951C44.6307 55.2007 44.6578 55.7105 44.8363 55.4925ZM45.0378 55.1234C45.1944 55.2495 45.374 55.4969 45.5215 55.1654C45.6208 55.6918 44.8833 56.4102 45.0378 55.1234ZM46.0493 55.356C46.3781 55.7613 45.5894 55.4355 45.5906 55.4361C45.7324 55.1973 45.8852 55.1707 46.0493 55.356ZM48.8772 53.0958C48.99 54.1336 49.301 54.104 49.803 53.6216C50.535 52.918 50.6586 51.7659 50.7096 50.3901C50.7587 49.0709 50.8471 48.5602 51.5929 48.8356C52.1135 49.0278 52.5539 48.8662 53.0787 48.8398C53.6387 48.8116 53.836 48.9677 53.8811 50.0188C53.9262 51.0712 54.0289 51.8704 54.4476 52.6714C54.8734 53.4857 55.4412 53.972 55.9944 54.4276C56.2789 54.6616 56.5459 54.9135 56.8607 54.9643C56.9827 54.984 57.6175 54.8376 57.6308 55.204C57.6407 55.4794 56.7616 56.2562 56.6684 56.3488C56.2606 56.7531 55.854 57.116 55.4087 57.361C54.3841 57.9248 53.2977 57.958 52.2365 57.9239C50.5254 57.869 48.1606 56.5489 47.1375 53.7802C47.7174 53.5521 48.2974 53.3239 48.8772 53.0958ZM48.7238 44.1094C48.453 43.695 48.2777 43.0689 48.0528 42.5782C47.9394 42.3308 47.8563 42.252 47.7483 42.1281C47.6347 41.9976 47.5707 42.1823 47.4758 41.8756C47.2308 41.0832 47.9868 39.9682 47.1849 39.6633C46.9137 39.5598 46.2607 39.952 46.1815 39.2429C46.0695 38.2404 47.1186 38.1749 47.3654 37.666C47.8563 36.6544 47.5231 34.9395 47.8221 33.7725C48.105 32.667 48.8355 32.4706 49.412 32.1384C50.2153 31.6758 51.0283 31.4075 51.844 31.0373C52.4143 30.7785 53.3618 29.739 53.8908 30.6576C53.0745 30.988 53.549 31.5069 54.093 31.7997C54.7093 32.1317 55.3623 32.2611 56.0008 32.3536C56.6581 32.4486 57.3279 32.4668 57.9773 32.2278C58.5779 32.0068 59.2487 31.0546 59.8784 31.2985C59.529 32.4067 58.4881 33.0119 57.8556 33.3022C57.5334 33.45 57.327 33.4039 57.3703 34.1367C57.4122 34.8469 57.7507 35.5591 57.8273 36.2991C57.9284 37.2783 57.84 38.1783 57.6489 39.0991C57.4609 40.0053 57.4171 40.1236 57.5813 40.9894C57.8374 42.3374 57.2871 43.8275 56.7786 44.8065C54.7219 48.765 50.786 47.2656 48.7238 44.1094ZM53.9497 20.451C53.958 20.4914 53.9509 20.476 53.9497 20.451V20.451ZM54.5902 30.441C54.5049 30.557 54.0138 30.8007 54.0344 30.4507C54.0618 29.9815 54.5045 30.1511 54.5902 30.441ZM55.7096 20.9654C55.5944 20.8087 55.2716 20.8731 55.5076 20.2792C55.5844 20.5404 55.6471 20.7528 55.7096 20.9654ZM47.9636 17.2111C48.1105 16.5151 48.2732 15.8675 48.3394 15.1264C48.3802 14.6699 48.299 14.1485 48.6489 14.0768C48.2029 13.7222 48.1984 12.3222 48.172 11.5964C48.1359 10.597 47.9627 9.25883 48.2037 8.32859C48.4508 7.37303 48.7844 7.38883 48.885 8.52688C48.9244 8.97247 48.7736 9.11657 48.7453 9.42689C48.6892 10.0408 48.8008 9.90619 49.0179 9.43852C49.1075 9.91385 49.1419 10.6281 49.5067 10.5979C49.4823 10.4694 49.3426 10.1858 49.3894 10.0261C49.461 9.78091 49.8114 10.1556 49.8558 10.2123C50.1758 10.6205 50.2452 10.9931 50.017 11.5079C50.3329 11.57 50.0677 12.0745 50.2717 12.2059C50.5828 12.4065 50.3741 11.4562 50.3404 11.289C50.5298 11.4238 50.5933 11.5778 50.7133 11.8505C50.7836 12.0388 50.8477 12.2343 50.9055 12.4365C50.97 12.8058 51.1027 12.8981 51.3037 12.7141C51.7067 12.9447 52.263 12.9085 52.6242 13.3118C52.7892 13.4958 52.8487 13.8986 52.9866 14.0515C53.1416 14.2238 53.3494 14.1456 53.516 14.2537C53.4551 14.5063 53.5045 14.643 53.6637 14.6643C53.7876 14.6849 53.9076 14.7358 54.0236 14.8168C54.1102 14.6976 54.2046 14.6033 54.3065 14.5349C54.375 14.7549 54.4717 14.8092 54.5969 14.6985C54.9686 14.8254 55.1471 15.0818 55.3833 15.4651C55.5952 15.8091 55.4227 15.837 55.655 15.8064C55.7483 15.7942 55.9118 15.5055 56.1253 15.5618C56.2482 15.6053 56.3666 15.6746 56.4807 15.7689C56.604 15.9613 56.735 15.9855 56.8735 15.8417C57.0985 16.0421 57.1207 16.3977 57.3951 16.4463C57.6984 16.5002 57.6008 15.8102 57.8091 16.7832C58.0897 15.7516 58.1926 17.3951 58.4823 17.5278C58.7824 17.6654 58.8147 17.2215 59.0716 17.7064C59.1486 17.8518 59.1444 18.092 59.2308 18.246C59.3724 18.4981 59.5639 18.4477 59.6871 18.7917C59.6185 18.5998 59.7033 19.4722 59.7018 19.4434C59.7209 19.8282 59.5334 20.2594 59.9177 20.2266C59.9134 20.267 59.7288 20.7577 59.6928 20.7022C59.684 20.6463 59.6765 20.5895 59.6707 20.532C59.6294 20.5644 59.6112 21.0318 59.6187 21.1143C59.6513 21.1237 59.6647 21.0795 59.6587 20.9818C59.5956 21.3423 59.6907 21.5713 59.5694 21.9136C59.4918 22.1322 59.2793 22.2966 59.1664 22.4316C58.894 22.7574 58.6273 23.0843 58.3615 23.4312C57.7417 24.2399 57.0478 25.2154 56.2673 25.384C56.6592 24.682 58.9145 22.0254 57.7833 21.2628C57.5736 21.1215 57.1916 20.9876 56.9722 20.9579C56.6993 20.921 56.4171 21.206 56.1162 21.028C55.7528 20.8138 55.8897 20.1911 55.6679 19.9676C55.1967 19.4937 55.3079 20.6083 55.1597 20.9002C55.0038 20.6021 55.0372 20.457 54.7913 20.4301C54.5416 20.4026 54.4822 20.8236 54.1908 20.5613C53.7893 20.2 54.0018 19.48 53.4323 19.4631C53.4418 19.3051 53.5244 18.8634 53.4157 18.7403C53.2692 19.0867 53.3826 19.4742 53.2466 19.8078C53.1786 19.9751 53.0309 20.1085 52.923 20.1627C52.6706 20.2892 52.6347 20.5313 52.6758 19.838C52.4886 20.4527 51.9149 20.2 51.5736 20.138C51.0187 20.0375 50.429 19.846 49.897 19.5215C49.4051 19.2212 49.1423 18.7054 48.7365 18.236C48.5832 18.0584 48.51 18.1264 48.2901 18.0161C48.0729 17.9073 47.8614 17.6965 47.9636 17.2111ZM49.1343 6.32518C49.2182 6.23312 49.2783 7.60662 49.1768 7.86325C48.9908 7.327 48.6613 6.54042 49.1343 6.32518ZM49.4019 5.7773C49.6713 5.33264 49.4842 6.48114 49.4347 6.67383C49.335 6.55715 49.2352 6.44046 49.1354 6.32378C49.2627 6.1813 49.2944 5.95465 49.4019 5.7773ZM59.5649 3.92636C62.0536 4.87893 64.5196 6.65942 66.5156 9.58959C68.3338 12.2585 69.617 16.0452 70.3365 20.0732C71.0832 24.2541 70.8323 28.8927 69.0556 32.0926C68.1196 33.7781 66.8837 34.795 65.7058 35.7873C65.1414 36.2627 64.5602 36.6586 63.9936 37.1231C63.5867 37.4567 63.0899 37.9903 62.6255 37.8979C62.8624 37.4432 63.2061 37.4339 63.4929 37.156C63.8393 36.8198 64.1222 36.1748 64.4208 35.7141C64.7172 35.2566 65.3748 33.8162 65.8304 34.1649C65.7671 33.3974 66.2466 33.0412 66.4626 32.5352C66.691 31.9999 66.7074 31.3738 67.1284 31.1987C66.6762 30.5533 66.8147 29.3364 66.913 28.4579C67.0388 27.3345 67.097 26.3031 67.1467 25.1599C67.2361 23.0989 67.3081 20.4734 66.6838 18.6617C66.4812 18.0733 66.2232 17.5327 66.0425 16.9214C65.8246 16.185 65.8726 15.537 65.8726 14.7296C65.4744 15.2178 65.3904 14.2224 65.2221 13.7373C65.0958 13.3733 64.9299 13.17 64.8892 12.7119C64.8596 12.3788 65.058 12.3224 64.9492 11.9731C64.8159 12.1566 64.7628 12.4411 64.6952 12.7052C64.5722 12.6156 64.7172 12.3031 64.6468 12.2017C64.6447 12.1988 64.4073 12.0108 64.4191 12.0379C64.2664 11.6848 64.2173 11.0988 64.1424 10.6786C63.8627 10.9371 63.915 10.9066 63.6029 10.4747C63.5479 10.3987 63.2732 10.0496 63.2473 9.93546C63.1266 9.40179 63.3382 9.7179 63.2791 9.38667C63.1091 8.43528 62.1553 8.61521 62.0797 7.18962C61.6147 7.7282 61.4373 6.96508 61.1624 6.42232C60.8806 5.86634 60.4079 5.65248 60.4333 4.7706C60.2869 4.86195 60.1405 4.95305 59.9942 5.04394C60.0703 4.23017 59.4075 4.28199 59.1674 3.86919C59.3006 3.8722 59.4331 3.89127 59.5649 3.92636ZM59.944 54.3289C60.1745 53.9527 60.1046 54.4534 60.253 54.3961C60.38 54.3471 60.405 54.1722 60.5267 54.1185C61.0282 53.8974 61.7779 54.1751 62.3051 54.1273C62.9158 54.0723 63.9628 54.3036 64.2539 55.607C64.4292 56.3918 64.1616 56.1248 63.8668 56.0664C63.6383 56.0214 63.4351 56.1057 63.2089 56.1015C63.097 56.133 62.9857 56.1299 62.8746 56.092C62.8204 56.0269 62.7884 55.9353 62.7786 55.8172C62.4639 55.7304 62.1296 56.07 61.7811 56.0869C61.3159 56.1095 60.9026 55.9468 60.5492 55.374C60.4087 55.756 60.313 55.9455 60.0603 55.9881C60.0537 55.9892 59.8068 55.8081 59.7687 55.7899C59.7181 55.7659 59.5902 55.9595 59.4928 55.9042C59.6657 55.4017 59.6909 54.7415 59.944 54.3289ZM91.7113 58.8647C91.7934 58.3438 91.8621 57.816 91.9369 57.2918C93.085 59.6756 94.0897 62.8669 94.5419 65.9242C94.8355 67.9108 95.2926 71.5106 93.8925 72.5353C92.752 73.37 92.116 70.3781 91.8274 68.9044C91.1904 65.6512 91.1904 62.1747 91.7113 58.8647ZM40.3441 21.5107C40.3589 21.5052 39.6009 22.3093 39.8506 21.6583C39.9508 21.3964 40.3313 21.2124 40.5001 21.2124L40.3441 21.5107ZM39.615 21.8514C39.5273 21.9859 39.4387 22.1189 39.3494 22.25C39.2636 22.0028 39.1775 21.7553 39.0918 21.5081C39.261 21.378 39.9793 21.2804 39.615 21.8514ZM39.0807 46.8501C38.9221 46.6542 38.7964 46.7583 38.7487 47.0872C38.7487 46.76 38.8422 45.9997 38.9858 45.9111C39.0786 45.8536 38.6773 44.9878 38.7901 44.7612C39.0769 45.0609 38.9052 45.3478 38.9892 45.7347C39.0271 45.9091 39.141 46.0742 39.166 46.2083C39.2083 46.436 39.3795 47.2186 39.0807 46.8501ZM38.3037 44.9017C38.1413 44.9776 38.4257 45.4666 38.4254 45.6827C38.4252 45.8463 38.3176 45.9717 38.2732 46.1954C38.1769 46.6799 38.3425 47.0073 38.07 47.377C38.07 46.3153 37.6793 43.5017 38.43 42.9844C38.0638 42.4584 38.3646 41.8512 38.6516 42.4808C38.9276 43.086 38.7518 44.6927 38.3037 44.9017ZM37.9126 40.7117C37.765 39.7574 37.3209 39.4236 36.8132 39.4802C36.8326 38.9914 37.0355 38.287 37.1822 39.1677C37.2425 38.9073 37.2843 38.5678 37.4218 38.3953C37.6533 39.7192 38.8076 40.4507 38.089 41.8853C38.0302 41.4943 37.9731 41.1023 37.9126 40.7117ZM36.5712 39.5512C33.8982 39.9047 30.1455 40.9163 28.0064 37.1793C26.6116 34.7426 26.6861 30.9481 27.8133 28.2409C28.4565 26.6959 29.3346 25.6082 30.2164 24.572C30.5566 24.1718 30.8449 23.9079 31.2185 23.678C31.2789 23.666 31.3359 23.6906 31.3891 23.7519C31.4101 23.5872 31.4609 23.4656 31.5418 23.3859C31.6861 23.2452 31.8916 23.1948 31.9747 22.9025C31.886 23.4516 31.8404 24.0169 31.8079 24.5848C31.7359 24.4319 31.6639 24.279 31.592 24.1261C31.5319 25.1608 30.9409 24.5345 30.588 24.6636C30.8204 25.2504 30.9867 25.4635 31.0067 26.239C30.8336 25.6559 30.4716 25.2726 30.135 25.0849C30.3178 26.0709 30.447 26.6562 30.263 27.7375C30.0407 27.506 30.0257 26.9501 29.7561 26.8169C29.6849 27.4616 29.6723 28.1772 29.5812 28.8028C28.8908 28.2284 28.9581 29.7754 29.2354 30.5408C29.3827 30.9481 29.4551 31.4195 29.5867 31.8103C29.9094 32.7693 29.6642 31.3354 30.0229 31.4033C29.9424 32.4147 29.9143 32.5154 30.3201 33.2561C30.7161 33.9782 30.9216 34.9803 31.3451 35.6588C31.4678 35.3729 31.2749 35.0737 31.258 34.8001C31.6521 34.9206 31.8367 35.6415 32.2157 35.0029C32.3809 35.5904 32.5598 36.2374 32.9555 36.3579C32.6939 35.4508 33.4579 36.066 33.6538 36.1948C33.8024 36.2924 34.0687 36.3701 34.126 36.4076C34.4488 36.6202 34.2275 36.2387 34.4234 36.9358C34.711 36.7774 34.8196 36.3421 35.1637 36.7099C35.4434 37.0091 35.444 37.5213 35.5081 38.0462C35.5747 37.7029 35.642 37.3597 35.7158 37.0211C35.7908 37.0788 36.1059 37.7111 36.0714 37.714C36.8087 37.648 36.7827 38.483 36.5712 39.5512ZM32.8181 22.4353C32.9662 22.2458 33.1469 22.4981 33.3131 22.4302C33.5433 22.3366 33.674 21.977 33.9312 21.9384C33.8596 22.3554 33.7254 22.3164 33.6117 22.6437C33.573 22.7554 33.5932 23.023 33.5588 23.0874C33.2707 23.6256 33.1711 23.1864 32.877 22.7789C32.9026 23.2703 32.9544 23.4254 32.7006 23.5572C32.4708 23.6769 32.0915 23.2368 31.9757 22.8992C32.0734 22.5428 32.6409 22.6622 32.8181 22.4353ZM34.6523 21.6672C34.9018 21.7107 34.6011 23.0539 34.2435 21.7511C34.3782 21.6976 34.5145 21.6696 34.6523 21.6672ZM35.9356 21.4078C36.3293 21.2613 37.6423 20.5788 37.7884 21.6963C37.8146 21.6685 37.9123 21.0376 37.9577 21.1146C38.1395 21.4231 38.1598 21.8319 38.1459 22.2602C37.9262 21.4253 38.0043 22.1588 37.8553 22.1015C37.8165 22.0865 37.757 22.2189 37.6586 22.1643C37.5295 22.0924 37.437 21.5915 37.3555 21.422C37.2198 21.7751 37.0516 22.23 36.7799 22.1994C36.5875 22.1777 36.2776 21.2746 36.5267 22.2633C36.3804 22.1752 36.2111 21.9757 36.0482 22.0156C35.8658 22.0607 35.771 22.389 35.6 22.442C35.221 22.5592 35.1638 21.894 34.9178 21.5327C35.2571 21.4968 35.6005 21.5323 35.9356 21.4078ZM38.3171 21.3969C38.3449 21.1678 38.6894 21.0753 38.7771 21.1481C38.9911 21.3254 38.9119 21.5596 38.8726 21.9491C38.7138 21.8119 38.5549 21.675 38.3961 21.5378C38.6331 22.2343 38.2036 22.3352 38.3171 21.3969ZM104.992 62.1887C104.964 60.5199 104.938 58.8221 104.706 57.1972C104.543 56.0602 104.144 54.0213 103.39 53.824C102.253 53.5261 101.623 57.6269 101.304 59.0345C101.24 57.3772 101.296 55.6132 100.953 54.0404C100.678 52.7797 99.9837 51.5859 99.3858 53.0014C98.8538 54.2614 98.7516 56.121 98.6115 57.6369C98.4301 59.6011 98.321 61.5803 98.1885 63.5563C97.6689 61.7248 97.5782 59.6284 97.1675 57.725C96.7799 55.9288 96.1702 54.2135 95.5827 52.6159C95.1031 51.3109 94.5194 50.084 93.768 49.2864C93.1138 48.5921 91.97 47.8411 91.3465 48.9941C90.8263 49.9562 90.9078 51.2437 90.9348 52.4579C90.947 52.9986 90.9935 53.3692 90.7327 53.6417C90.6047 53.7756 90.4044 53.7063 90.2636 53.7778C90.0368 53.8934 89.8628 54.0892 89.671 54.3493C88.3257 56.173 87.7056 59.4595 87.5137 62.3895C87.2707 66.1022 88.0642 69.2848 88.7471 72.6818C88.8559 73.2231 89.2015 74.3717 89.1538 74.976C89.1014 75.6381 88.6457 75.6554 88.3382 75.6691C87.4095 75.7109 86.4388 75.5848 85.5148 75.4268C83.3148 75.0515 81.1164 73.1197 79.1466 71.395C78.7873 71.0803 78.2788 70.9001 77.9854 70.4045C77.7097 69.9386 77.6369 69.192 77.3989 68.6576C76.8147 67.3464 76.4424 66.2275 75.5821 65.4352C74.7061 64.6287 73.8121 63.8832 72.9574 62.9999C71.9005 61.9068 70.9239 60.5223 69.9109 59.2986C68.0285 57.0248 66.1588 54.5322 64.1631 52.5986C63.2357 51.7 62.1994 51.5546 61.2366 50.8189C60.2989 50.1025 59.148 50.1016 58.1696 50.5539C57.6929 50.7745 57.3686 51.2969 56.9302 51.6381C56.4166 52.0378 55.9975 51.5966 55.5455 51.1194C54.8548 50.3905 54.1702 49.2027 55.1538 48.4164C55.4873 48.1494 55.9054 48.0484 56.1968 47.6289C56.5075 47.1819 56.7569 46.3572 57.0096 45.7973C57.5711 44.5524 57.9066 43.1195 58.7286 42.3454C59.6376 41.4894 60.7151 41.2563 61.6843 40.6968C62.7344 40.0909 63.7626 39.3703 64.7932 38.6628C66.6499 37.3881 68.5802 36.0119 69.9145 33.2057C71.0652 30.785 71.5668 27.66 71.5203 24.4863C71.4254 17.9983 69.5199 11.4135 66.7859 7.35698C63.4334 2.38272 59.1683 0.723998 54.9336 0.810932C52.9462 0.851858 50.5743 1.32626 48.916 3.52866C47.4837 5.43096 47.2454 8.75816 47.4585 11.7615C47.5449 12.9804 47.8405 14.5891 47.3692 15.663C47.1054 16.2641 46.6319 16.4128 46.2766 16.7874C45.8301 17.2581 45.4363 17.7093 44.9306 17.9581C42.7825 19.0163 40.5198 18.6479 38.3234 18.5893C34.6647 18.4917 30.9144 20.2985 28.185 25.0007C25.9808 28.7977 25.3198 35.9577 28.0081 39.6593C30.18 42.6497 33.5867 42.3208 36.1476 41.7992C36.9417 41.6372 37.4878 41.4019 37.4897 43.1741C37.4916 45.1099 37.3159 47.1331 37.5867 49.0334C38.0132 52.0265 39.5899 52.0977 40.9839 51.4532C41.7195 51.1132 42.4306 50.6018 43.1291 50.0663C44.1537 49.2808 45.0928 48.1259 46.1046 47.3417C46.7906 46.8104 47.3042 48.5289 47.9126 47.3375C48.025 47.1174 48.0458 46.7893 48.2154 46.6766C48.4811 46.5001 48.9268 47.1189 49.16 47.3147C49.509 47.6076 49.8608 47.8231 50.0002 48.5289C50.1307 49.1889 50.0735 50.2387 49.9485 50.8899C49.677 52.3057 48.9459 52.0258 48.2785 51.931C47.1144 51.7659 45.9581 51.4155 44.7945 51.2683C43.7504 51.1365 42.7727 51.7053 41.8722 52.6446C39.9808 54.6167 38.4333 57.7539 36.7934 60.3337C35.9493 61.6613 35.1334 63.0955 34.2155 64.2516C33.8164 64.7545 33.3842 65.2166 33.0374 65.8414C32.6931 66.461 32.6553 67.0245 32.5376 67.8493C32.328 69.3176 31.2868 70.0354 30.6361 70.8102C29.7158 71.9057 28.7401 72.6785 27.7084 73.3507C25.5235 74.7743 23.3214 75.7681 21.0372 76.5027C19.9188 76.8627 18.8098 77.0991 17.6805 77.2933C16.7071 77.4606 15.672 78.0075 14.6998 77.5707C14.9798 76.7422 15.476 76.2448 15.8625 75.6045C16.3606 74.7791 16.7843 73.8008 17.1614 72.7875C17.8953 70.814 18.4102 68.6964 18.5283 66.3028C18.6349 64.1484 18.5127 61.5715 17.8 59.7515C17.5539 59.1228 17.0668 58.9519 16.8465 58.3855C16.6274 57.8227 16.711 56.8534 16.591 56.1972C16.2857 54.5277 15.3795 52.459 14.582 51.4894C13.7168 50.4371 12.4512 50.0507 11.4518 50.5989C9.60026 51.6148 8.46288 55.2237 7.6156 58.1405C7.15284 56.3643 7.92784 53.729 7.02373 52.2744C6.26114 51.0473 5.65588 53.4242 5.40084 54.4412C4.20359 59.2149 3.93163 64.278 3.43005 69.3858C3.22562 69.0182 3.33039 68.075 3.34961 67.6367C3.38539 66.8204 3.38198 66.0198 3.38296 65.2004C3.38539 63.1299 3.59639 61.0501 3.49965 58.9816C3.4438 57.7858 3.23474 55.2646 2.28227 55.6618C1.47449 55.9988 0.96852 58.0706 0.714712 59.3372C0.348626 61.1642 0.264105 62.9728 0.286896 64.9028C0.312097 67.0352 0.0893426 69.1328 0.0353759 71.2623C-0.0695155 75.3986 0.0340989 79.4989 0.684802 83.491C1.75033 90.028 4.2003 95.4594 7.47007 98.7392C9.27159 100.546 11.2701 101.69 13.3249 101.936C14.4384 102.069 15.5134 101.827 16.6174 101.617C17.7068 101.41 18.802 101.314 19.8896 101.071C22.3116 100.529 24.6716 99.1307 26.8731 97.2489C28.0319 96.2581 29.1217 95.0419 30.2615 93.9857C30.719 93.5622 31.0279 93.032 31.4183 92.4427C31.8052 91.8588 31.9123 91.8131 32.3524 91.8131C32.2233 91.1832 32.6001 90.989 32.7677 90.5904C32.7584 90.784 32.7489 90.977 32.7395 91.1701C32.8673 90.6645 32.9863 90.6694 33.0964 91.1848C33.2052 90.6077 33.2857 90.0143 33.4172 89.4516C33.9196 89.9155 33.8772 91.0179 34.5492 90.2129C35.1025 89.5506 35.6112 88.769 36.1752 88.1198C37.4601 86.6405 38.5679 84.7159 39.8564 83.2537C39.8564 84.6779 39.9115 86.1143 39.8071 87.5312C39.7078 88.8786 39.4321 90.1379 39.2127 91.4278C38.8082 93.8074 38.7802 96.3507 38.332 98.7063C38.1465 99.682 37.6636 100.498 37.525 101.448C37.3838 102.417 37.7099 103.193 37.1633 103.829C36.7778 104.277 36.2961 104.467 35.8692 104.738C35.2182 105.152 34.6 105.736 33.9663 106.231C30.9936 108.555 28.094 110.921 25.3398 114.045C22.726 117.009 20.0724 120.071 17.6713 123.591C15.5875 126.646 13.481 130.597 12.9737 135.581C12.4815 140.416 13.793 145.605 16.4264 147.197C17.7955 148.025 19.3435 147.923 20.7694 147.959C22.3037 147.997 23.9296 147.323 25.4381 146.835C27.0312 146.319 28.597 145.513 30.1947 145.053C31.7277 144.611 33.1336 143.624 34.6415 143.016C36.2475 142.368 37.8948 142.016 39.5096 141.434C40.2367 141.171 40.9489 140.784 41.6779 140.541C42.476 140.276 43.2829 140.176 44.0732 139.824C45.6062 139.14 47.074 138.039 48.6136 137.403C49.3058 137.117 49.9874 136.734 50.6799 136.467C51.3174 136.221 51.8141 135.568 52.4531 136.104C52.9693 136.538 53.3811 137.282 53.8696 137.8C54.5032 138.471 55.1713 139.073 55.8319 139.651C57.1592 140.813 58.5358 141.616 59.9238 142.488C61.3815 143.405 62.8131 144.449 64.3235 145.054C65.8718 145.675 67.4514 145.847 69.0104 146.338C72.2032 147.342 75.3691 147.793 78.61 147.83C80.2482 147.849 81.8862 147.494 83.5205 147.536C84.9675 147.573 86.2253 148.168 87.5484 146.765C89.6624 144.524 92.1144 141.147 92.0625 136.242C92.0153 131.8 90.5543 127.556 89.1841 124.052C87.5199 119.798 85.1472 116.801 82.8218 113.866C80.3434 110.739 77.5595 108.577 74.9547 105.847C73.6225 104.451 72.3939 102.949 70.9474 101.956C70.2569 101.483 69.5833 100.934 68.9009 100.424C68.3517 100.014 67.5589 99.7868 67.0889 99.1061C66.7956 98.6813 66.7675 98.0381 66.6901 97.4067C66.5185 96.0091 66.2491 94.6839 65.9879 93.336C65.4836 90.7336 65.1484 88.0832 64.9317 85.3537C64.725 82.7519 64.2664 80.046 64.5039 77.4016C66.0662 80.1581 67.6716 82.8076 69.2702 85.4909C69.8692 86.4965 70.4571 87.5232 71.0593 88.5226C71.5113 89.273 72.0767 90.3876 72.7069 90.6102C73.5117 90.8947 73.2177 89.271 73.7703 89.0193C74.1079 88.8657 75.1265 90.4308 75.3936 90.74C77.086 92.6997 78.9601 93.9415 80.8216 95.2756C82.7735 96.6743 84.7809 97.9167 86.8814 98.2687C88.8216 98.5945 90.8054 98.1766 92.6777 97.2125C96.4062 95.2924 99.15 90.7371 101.164 84.8322C103.458 78.1034 105.127 70.2212 104.992 62.1887Z" fill="black"/>
<path fill-rule="evenodd" clip-rule="evenodd" d="M48.0076 47.5199C48.0069 47.522 48.0005 47.5444 48.0005 47.5444C48.0084 47.5354 48.0107 47.5273 48.0076 47.5199Z" fill="black"/>
<path fill-rule="evenodd" clip-rule="evenodd" d="M48.1867 47.6069C48.1727 47.3925 48.1425 47.1828 48.0963 46.9773C47.9729 47.3342 47.8624 47.4871 48.0246 47.8651C48.0785 47.7789 48.1326 47.693 48.1867 47.6069Z" fill="black"/>
<path fill-rule="evenodd" clip-rule="evenodd" d="M56.7847 98.6182C56.9227 98.3501 56.6812 98.2492 56.5895 98.2456C56.5986 98.533 56.5205 99.2221 56.7361 99.3553C56.6844 99.0952 56.7006 98.8495 56.7847 98.6182Z" fill="black"/>
<path fill-rule="evenodd" clip-rule="evenodd" d="M53.1425 42.548C52.9052 43.3838 53.4294 43.6431 53.7329 43.2393C53.9612 42.9357 54.0962 42.1618 54.1337 41.6653C54.255 40.0589 53.6387 38.5298 53.3313 37.1043C53.252 36.7358 53.1432 35.4721 52.8874 35.4375C52.5937 35.3975 52.5719 36.5614 52.5681 36.8617C52.5568 37.7672 52.6882 38.6896 52.8423 39.5443C53.0083 40.4658 53.4197 41.5719 53.1425 42.548Z" fill="black"/>
<path fill-rule="evenodd" clip-rule="evenodd" d="M54.2711 39.1961C55.1831 40.6773 55.9127 38.2102 55.849 36.7509C55.8333 36.3894 55.6993 35.0562 55.3233 35.5413C55.1344 35.785 55.2954 36.5771 55.2054 36.9249C54.7691 38.6108 54.3491 35.9957 54.0553 35.7904C53.698 35.5402 53.6621 36.3967 53.6625 36.8546C53.6634 37.7634 53.9006 38.5942 54.2711 39.1961Z" fill="black"/>
<path fill-rule="evenodd" clip-rule="evenodd" d="M50.9603 39.4262C51.175 38.8092 51.4392 37.9816 51.4684 37.2423C51.5137 36.0933 51.1467 36.1892 50.8444 36.9909C50.6311 37.5572 50.471 38.5178 49.9998 38.279C49.4182 37.9847 49.596 36.5581 49.2703 35.8803C48.4481 37.8946 50.0041 42.1716 50.9603 39.4262Z" fill="black"/>
<path fill-rule="evenodd" clip-rule="evenodd" d="M52.1926 45.5906C52.5327 45.7246 53.4194 45.6754 53.1122 44.7255C52.7247 43.5292 51.4363 45.2923 52.1926 45.5906Z" fill="black"/>
<path fill-rule="evenodd" clip-rule="evenodd" d="M64.1068 9.91321C64.1691 9.57509 64.0835 9.51368 63.9351 9.24741C63.7945 9.48403 63.9745 9.73298 64.1068 9.91321Z" fill="black"/>
<path fill-rule="evenodd" clip-rule="evenodd" d="M70.4501 71.1574C70.6745 71.2225 70.7468 71.0061 70.6666 70.5081C70.3126 70.4664 70.2406 70.6828 70.4501 71.1574Z" fill="black"/>
<path fill-rule="evenodd" clip-rule="evenodd" d="M58.1985 18.9129C58.446 19.1193 58.3512 19.5427 58.3469 19.9005C58.4745 19.6479 58.7319 19.1859 58.6271 18.823C58.4656 18.2635 58.0435 18.7837 58.1985 18.9129Z" fill="black"/>
<path fill-rule="evenodd" clip-rule="evenodd" d="M49.7686 11.8696C49.7309 11.7353 49.6932 11.6011 49.6555 11.4668C49.5018 11.6918 49.2645 12.2867 49.5087 12.5765C49.6089 12.3548 49.6955 12.1193 49.7686 11.8696Z" fill="black"/>
<path fill-rule="evenodd" clip-rule="evenodd" d="M52.738 15.8177C53.046 16.2581 52.8983 14.9062 52.889 14.7959C52.8433 14.9544 52.5825 15.5951 52.738 15.8177Z" fill="black"/>
<path fill-rule="evenodd" clip-rule="evenodd" d="M52.5674 15.1313C52.5439 15.0196 52.5202 14.9078 52.4967 14.7959C52.3719 15.0067 52.219 15.4371 52.4252 15.6837C52.4817 15.511 52.5291 15.3268 52.5674 15.1313Z" fill="black"/>
<path fill-rule="evenodd" clip-rule="evenodd" d="M54.523 19.7733C54.5481 19.8155 54.5732 19.8579 54.5983 19.9005C54.6999 19.5268 54.5844 19.2463 54.3926 19.2347C54.4063 19.4444 54.4497 19.624 54.523 19.7733Z" fill="black"/>
<path fill-rule="evenodd" clip-rule="evenodd" d="M46.2721 61.8105C46.3943 61.6589 46.5052 61.4858 46.6049 61.2916C46.2434 60.8886 46.46 61.7621 46.0249 61.2257C45.9312 61.462 46.0842 61.9911 46.2721 61.8105Z" fill="black"/>
<path fill-rule="evenodd" clip-rule="evenodd" d="M61.4627 98.4675C61.6002 98.0827 61.625 98.0938 61.4373 97.8017C61.2807 98.2773 61.2968 98.155 61.4627 98.4675Z" fill="black"/>
<path fill-rule="evenodd" clip-rule="evenodd" d="M32.733 37.229C32.8078 37.3713 32.8826 37.5137 32.9575 37.6558C32.9924 37.4696 33.183 36.9431 33.0535 36.768C32.9468 36.9216 32.8398 37.0752 32.733 37.229Z" fill="black"/>
<path fill-rule="evenodd" clip-rule="evenodd" d="M35.3946 38.6372C35.2751 38.6008 34.9893 38.4419 34.9232 38.6445C35.0981 38.9057 35.4925 38.6672 35.3946 38.6372Z" fill="black"/>
</svg>
